<svg width="15" height="10" viewBox="0 0 15 10" fill="none" xmlns="http://www.w3.org/2000/svg">
<path fill-rule="evenodd" clip-rule="evenodd" d="M5.15141 0.264375C5.50391 0.616874 5.50391 1.18839 5.15141 1.54089L3.08178 3.61053H12.6368V0.902632C12.6368 0.404122 13.041 1.34503e-08 13.5395 1.34503e-08C14.038 1.34503e-08 14.4421 0.404122 14.4421 0.902632V4.51316C14.4421 5.01167 14.038 5.41579 13.5395 5.41579H3.08178L5.15141 7.48543C5.50391 7.83793 5.50391 8.40944 5.15141 8.76194C4.79892 9.11444 4.2274 9.11444 3.8749 8.76194L0.264375 5.15141C-0.0881249 4.79892 -0.0881249 4.2274 0.264375 3.8749L3.8749 0.264375C4.2274 -0.0881249 4.79892 -0.0881249 5.15141 0.264375Z" fill="#A6A6A6"/>
</svg>
